# xmcd
#
# Track frame offsets:
#	150
#	13142
#	23034
#	42251
#	54226
#	64834
#	77241
#	86861
#	95731
#	106979
#	121368
#	131351
#	145939
#	158564
#
# Disc length: 2233 seconds
#
# Revision: 0
# Processed by: cddbd v1.4PL0 Copyright (c) Steve Scherf et al.
# Submitted via: EasyCDDAExtractor 4.6.9.1
#
DISCID=b608b70e
DTITLE=Josh Graves - Memories Of Foggy Mountain
DYEAR=2002
DGENRE=Bluegrass
TTITLE0=False hearted Lover
TTITLE1=Foggy Mountain Special
TTITLE2=Flatt Lonesome
TTITLE3=Foggy Mountain Chimes
TTITLE4=Foggy Mountain Rock
TTITLE5=Road To Aspen
TTITLE6=Jennifer Waltz
TTITLE7=Just Joshin'
TTITLE8=Maggie Blues
TTITLE9=Maiden's Prayer
TTITLE10=Pike County Breakdown
TTITLE11=Jesus, Saviour, Pilot Me (The Sailor's Hymn)
TTITLE12=Shiloh March
TTITLE13=Shuckin' The Corn
EXTD=
EXTT0=
EXTT1=
EXTT2=
EXTT3=
EXTT4=
EXTT5=
EXTT6=
EXTT7=
EXTT8=
EXTT9=
EXTT10=
EXTT11=
EXTT12=
EXTT13=
PLAYORDER=
